# xmcd
#
# Track frame offsets:
#	150
#	10459
#	23726
#	37311
#	54543
#	67273
#	86037
#	101913
#	116400
#	132957
#	145816
#	166070
#	176851
#	192687
#
# Disc length: 2735 seconds
#
# Revision: 1
# Processed by: cddbd v1.5.1PL0 Copyright (c) Steve Scherf et al.
# Submitted via: audiograbber 1.83.01
#
DISCID=d30aad0e
DTITLE=Philomena Begley - Ireland's Queen of Country
DYEAR=1900
DGENRE=Country
TTITLE0=Dancing at the fay doe doe
TTITLE1=The Way old Friends do and Margo O'Donell
TTITLE2=Golden Memories and Margo O'Donell
TTITLE3=I'll remember you
TTITLE4=Husband hunting and Margo O'Donell
TTITLE5=Green Fields around Arboe
TTITLE6=Down at the Twist and shout
TTITLE7=I fell in Love
TTITLE8=How you play the Game
TTITLE9=Bayou Baby
TTITLE10=Gold and Silver Days
TTITLE11=Louisiana Saturday Night
TTITLE12=Crystal Chandelier
TTITLE13=The Fiddle and Guitar Band
EXTD=
EXTT0=
EXTT1=
EXTT2=
EXTT3=
EXTT4=
EXTT5=
EXTT6=
EXTT7=
EXTT8=
EXTT9=
EXTT10=
EXTT11=
EXTT12=
EXTT13=
PLAYORDER=
